<svg width="456" height="162" viewBox="0 0 456 162" fill="none" xmlns="http://www.w3.org/2000/svg">
<path d="M38.0435 122.024C26.6942 122.024 17.6062 119.891 10.7795 115.624C3.95283 111.272 0.5395 104.659 0.5395 95.784C0.5395 91.0907 1.35017 87.5067 2.9715 85.032C4.59283 82.5573 6.98217 81.32 10.1395 81.32C12.4435 81.32 14.3208 81.9173 15.7715 83.112C17.2222 84.3067 17.9475 85.8427 17.9475 87.72C17.9475 89.4267 17.8195 90.92 17.5635 92.2C17.5635 92.5413 17.4782 93.1387 17.3075 93.992C17.2222 94.8453 17.1795 95.7413 17.1795 96.68C17.1795 100.52 19.0995 103.379 22.9395 105.256C26.8648 107.133 32.3262 108.072 39.3235 108.072C46.5768 108.072 52.2515 106.792 56.3475 104.232C60.4435 101.587 62.4915 97.9173 62.4915 93.224C62.4915 90.3227 61.5528 87.848 59.6755 85.8C57.7982 83.6667 55.4515 81.9173 52.6355 80.552C49.8195 79.1013 45.8515 77.352 40.7315 75.304C34.1608 72.744 28.7848 70.312 24.6035 68.008C20.5075 65.704 16.9662 62.5893 13.9795 58.664C11.0782 54.6533 9.6275 49.704 9.6275 43.816C9.6275 37.672 11.2488 32.2107 14.4915 27.432C17.8195 22.6533 22.5555 18.9413 28.6995 16.296C34.9288 13.6507 42.2248 12.328 50.5875 12.328C56.8168 12.328 62.5342 13.2667 67.7395 15.144C72.9448 16.936 77.0835 19.7093 80.1555 23.464C83.3128 27.2187 84.8915 31.8267 84.8915 37.288C84.8915 42.664 84.0808 46.7173 82.4595 49.448C80.8382 52.1787 78.4488 53.544 75.2915 53.544C73.0728 53.544 71.1955 52.8613 69.6595 51.496C68.2088 50.1307 67.4835 48.5093 67.4835 46.632C67.4835 45.0107 67.6115 43.5173 67.8675 42.152C68.1235 39.592 68.2515 37.9707 68.2515 37.288C68.2515 33.704 66.5022 30.9733 63.0035 29.096C59.5048 27.2187 55.1528 26.28 49.9475 26.28C42.6088 26.28 36.9768 27.6453 33.0515 30.376C29.2115 33.0213 27.2915 36.776 27.2915 41.64C27.2915 44.8827 28.2728 47.656 30.2355 49.96C32.2835 52.264 34.8008 54.184 37.7875 55.72C40.7742 57.256 44.9555 59.0907 50.3315 61.224C56.8168 63.8693 62.0222 66.2587 65.9475 68.392C69.8728 70.5253 73.2008 73.4267 75.9315 77.096C78.7475 80.7653 80.1555 85.288 80.1555 90.664C80.1555 100.733 76.3155 108.499 68.6355 113.96C61.0408 119.336 50.8435 122.024 38.0435 122.024ZM160.872 92.456C161.981 92.456 162.834 92.968 163.432 93.992C164.114 95.016 164.456 96.424 164.456 98.216C164.456 101.629 163.645 104.275 162.024 106.152C158.098 110.675 154.045 114.387 149.864 117.288C145.768 120.189 141.074 121.64 135.784 121.64C131.432 121.64 128.146 120.403 125.928 117.928C123.709 115.368 122.6 111.699 122.6 106.92C122.6 104.531 123.197 100.264 124.392 94.12C125.501 88.744 126.056 85.032 126.056 82.984C126.056 81.6187 125.586 80.936 124.648 80.936C123.538 80.936 121.96 82.3867 119.912 85.288C117.864 88.104 115.816 91.8587 113.768 96.552C111.72 101.245 110.056 106.195 108.776 111.4C107.154 118.227 103.144 121.64 96.7435 121.64C94.1835 121.64 92.4768 120.744 91.6235 118.952C90.8555 117.075 90.4715 113.747 90.4715 108.968C90.4715 106.237 90.5142 104.061 90.5995 102.44L90.7275 92.2C90.7275 79.0587 92.0502 65.3627 94.6955 51.112C97.4262 36.8613 101.394 24.9147 106.6 15.272C111.89 5.54399 118.205 0.679993 125.544 0.679993C129.469 0.679993 132.626 2.38666 135.016 5.8C137.49 9.12799 138.728 13.48 138.728 18.856C138.728 27.4747 136.21 36.4347 131.176 45.736C126.141 54.952 117.949 65.7467 106.6 78.12C106.344 82.5573 106.216 87.1227 106.216 91.816C109.032 84.5627 112.146 78.6747 115.56 74.152C119.058 69.544 122.472 66.2587 125.8 64.296C129.213 62.3333 132.328 61.352 135.144 61.352C140.69 61.352 143.464 64.1253 143.464 69.672C143.464 73 142.525 79.016 140.648 87.72C139.026 95.144 138.216 100.051 138.216 102.44C138.216 105.853 139.453 107.56 141.928 107.56C143.634 107.56 145.64 106.536 147.944 104.488C150.333 102.355 153.49 98.9413 157.416 94.248C158.44 93.0533 159.592 92.456 160.872 92.456ZM122.856 13.352C121.32 13.352 119.613 15.5707 117.736 20.008C115.858 24.36 114.024 30.2907 112.232 37.8C110.525 45.224 109.117 53.3307 108.008 62.12C113.298 55.8907 117.65 49.1067 121.064 41.768C124.562 34.4293 126.312 27.7733 126.312 21.8C126.312 19.0693 126.013 16.9787 125.416 15.528C124.818 14.0773 123.965 13.352 122.856 13.352ZM219.362 81.704C220.471 81.704 221.324 82.2587 221.922 83.368C222.519 84.4773 222.818 85.8853 222.818 87.592C222.818 91.688 221.58 94.12 219.106 94.888C213.986 96.68 208.354 97.704 202.21 97.96C200.588 105.128 197.388 110.888 192.61 115.24C187.831 119.507 182.412 121.64 176.354 121.64C171.234 121.64 166.839 120.403 163.17 117.928C159.586 115.453 156.855 112.168 154.978 108.072C153.1 103.976 152.161 99.5387 152.161 94.76C152.161 88.2747 153.399 82.5147 155.874 77.48C158.348 72.36 161.762 68.392 166.114 65.576C170.466 62.6747 175.287 61.224 180.578 61.224C187.063 61.224 192.268 63.4853 196.194 68.008C200.204 72.4453 202.551 77.9493 203.234 84.52C207.244 84.264 212.023 83.4107 217.57 81.96C218.252 81.7893 218.85 81.704 219.362 81.704ZM177.378 108.072C180.108 108.072 182.455 106.963 184.418 104.744C186.466 102.525 187.831 99.3253 188.514 95.144C185.868 93.352 183.82 91.0053 182.37 88.104C181.004 85.2027 180.322 82.1307 180.322 78.888C180.322 77.5227 180.45 76.1573 180.706 74.792H180.066C176.652 74.792 173.794 76.456 171.49 79.784C169.271 83.0267 168.162 87.6347 168.162 93.608C168.162 98.3013 169.058 101.885 170.85 104.36C172.727 106.835 174.903 108.072 177.378 108.072ZM308.57 82.088C308.826 82.0027 309.252 81.96 309.85 81.96C311.13 81.96 312.111 82.3867 312.794 83.24C313.476 84.0933 313.818 85.2453 313.818 86.696C313.818 89.3413 313.306 91.432 312.282 92.968C311.258 94.4187 309.722 95.4853 307.674 96.168C303.748 97.448 299.567 98.088 295.13 98.088C291.375 98.088 287.834 97.576 284.506 96.552C282.031 100.563 279.3 104.701 276.314 108.968C272.9 113.832 269.956 117.16 267.482 118.952C265.092 120.744 262.362 121.64 259.29 121.64C255.876 121.64 253.274 120.317 251.482 117.672C249.775 115.027 248.708 110.675 248.282 104.616L247.642 95.272C244.996 102.44 242.607 107.901 240.474 111.656C238.426 115.411 236.335 118.013 234.202 119.464C232.154 120.915 229.722 121.64 226.906 121.64C223.407 121.64 220.634 120.275 218.586 117.544C216.623 114.813 215.386 110.504 214.874 104.616C213.85 92.6693 213.338 82.216 213.338 73.256V68.776C213.423 65.96 214.191 63.9973 215.642 62.888C217.092 61.7787 219.268 61.224 222.17 61.224C224.388 61.224 226.01 61.736 227.034 62.76C228.143 63.6987 228.698 65.32 228.698 67.624C228.698 77.4373 229.295 90.1947 230.49 105.896C236.292 93.6933 241.626 80.9787 246.49 67.752C247.428 65.192 248.538 63.4853 249.818 62.632C251.183 61.6933 252.804 61.224 254.682 61.224C256.986 61.224 258.564 61.6933 259.418 62.632C260.356 63.5707 260.826 65.2347 260.826 67.624C260.826 77.4373 261.423 90.1947 262.618 105.896C267.738 98.3013 271.578 92.2427 274.138 87.72C272.858 85.2453 272.218 82.3013 272.218 78.888C272.218 75.9867 272.858 73.1707 274.138 70.44C275.418 67.7093 277.167 65.4907 279.386 63.784C281.604 62.0773 284.122 61.224 286.938 61.224C289.412 61.224 291.418 62.12 292.954 63.912C294.49 65.6187 295.258 68.136 295.258 71.464C295.258 75.304 294.234 79.6987 292.186 84.648C295.428 84.4773 299.738 83.8373 305.114 82.728L308.57 82.088ZM367.987 81.704C369.096 81.704 369.949 82.2587 370.547 83.368C371.144 84.4773 371.443 85.8853 371.443 87.592C371.443 91.688 370.205 94.12 367.731 94.888C362.611 96.68 356.979 97.704 350.835 97.96C349.213 105.128 346.013 110.888 341.235 115.24C336.456 119.507 331.037 121.64 324.979 121.64C319.859 121.64 315.464 120.403 311.795 117.928C308.211 115.453 305.48 112.168 303.603 108.072C301.725 103.976 300.786 99.5387 300.786 94.76C300.786 88.2747 302.024 82.5147 304.499 77.48C306.973 72.36 310.387 68.392 314.739 65.576C319.091 62.6747 323.912 61.224 329.203 61.224C335.688 61.224 340.893 63.4853 344.819 68.008C348.829 72.4453 351.176 77.9493 351.859 84.52C355.869 84.264 360.648 83.4107 366.195 81.96C366.877 81.7893 367.475 81.704 367.987 81.704ZM326.003 108.072C328.733 108.072 331.08 106.963 333.043 104.744C335.091 102.525 336.456 99.3253 337.139 95.144C334.493 93.352 332.445 91.0053 330.995 88.104C329.629 85.2027 328.947 82.1307 328.947 78.888C328.947 77.5227 329.075 76.1573 329.331 74.792H328.691C325.277 74.792 322.419 76.456 320.115 79.784C317.896 83.0267 316.787 87.6347 316.787 93.608C316.787 98.3013 317.683 101.885 319.475 104.36C321.352 106.835 323.528 108.072 326.003 108.072ZM451.593 85.16C453.982 85.16 455.177 86.952 455.177 90.536C455.177 97.3627 449.715 100.776 438.793 100.776C438.366 100.776 435.977 100.648 431.625 100.392C432.563 104.915 433.289 110.077 433.801 115.88C434.398 121.597 434.697 127.315 434.697 133.032C434.697 142.248 433.118 149.288 429.961 154.152C426.889 159.016 422.921 161.448 418.057 161.448C411.913 161.448 407.518 157.096 404.873 148.392C402.313 139.688 401.033 126.547 401.033 108.968C401.033 104.445 401.161 99.88 401.417 95.272C400.649 95.3573 399.411 95.4 397.705 95.4C395.401 95.4 393.523 95.4427 392.073 95.528C392.926 101.843 393.566 107.901 393.993 113.704C394.505 119.507 394.761 125.949 394.761 133.032C394.761 142.248 393.182 149.288 390.025 154.152C386.953 159.016 382.985 161.448 378.121 161.448C371.977 161.448 367.582 157.096 364.937 148.392C362.377 139.688 361.097 126.547 361.097 108.968C361.097 92.4987 362.718 75.8587 365.961 59.048C369.289 42.152 373.897 28.2 379.785 17.192C385.673 6.18399 392.329 0.679993 399.753 0.679993C403.593 0.679993 406.579 2.30133 408.713 5.54399C410.931 8.70132 412.041 13.2667 412.041 19.24C412.041 28.5413 409.523 38.9093 404.489 50.344C399.539 61.6933 390.75 73.64 378.121 86.184C377.353 93.6933 376.969 100.989 376.969 108.072C376.969 116.861 377.267 125.864 377.865 135.08C378.462 144.381 379.443 149.032 380.809 149.032C382.089 149.032 383.113 147.965 383.881 145.832C384.649 143.699 385.033 140.328 385.033 135.72C385.033 127.357 384.691 119.976 384.009 113.576C383.411 107.091 382.686 101.885 381.833 97.96C381.662 97.3627 381.577 96.4667 381.577 95.272C381.577 91.6027 383.027 88.5733 385.929 86.184C388.915 83.7947 392.841 82.5573 397.705 82.472H400.777H402.569C404.19 68.3067 406.835 54.9947 410.505 42.536C414.259 29.992 418.782 19.88 424.073 12.2C429.449 4.51999 435.209 0.679993 441.353 0.679993C445.363 0.679993 448.478 2.47199 450.697 6.05599C453.001 9.63999 454.153 14.4613 454.153 20.52C454.153 28.0293 452.745 36.4347 449.929 45.736C447.113 55.0373 442.931 63.784 437.385 71.976C431.923 80.0827 425.395 86.184 417.801 90.28C417.203 95.9973 416.905 101.928 416.905 108.072C416.905 116.861 417.203 125.864 417.801 135.08C418.398 144.381 419.379 149.032 420.745 149.032C422.025 149.032 423.049 147.965 423.817 145.832C424.585 143.699 424.969 140.328 424.969 135.72C424.969 129.064 424.627 122.707 423.945 116.648C423.262 110.589 422.537 105.64 421.769 101.8C421.598 101.117 421.513 100.179 421.513 98.984C421.513 95.4853 422.707 92.5413 425.097 90.152C427.486 87.6773 430.217 86.44 433.289 86.44C436.19 86.44 438.835 86.3547 441.225 86.184C443.699 85.928 445.278 85.7573 445.961 85.672C448.862 85.3307 450.739 85.16 451.593 85.16ZM397.065 13.352C395.529 13.352 393.694 15.9547 391.561 21.16C389.513 26.3653 387.465 33.2773 385.417 41.896C383.369 50.5147 381.619 59.688 380.169 69.416C386.654 61.736 391.518 53.416 394.761 44.456C398.089 35.4107 399.753 27.2187 399.753 19.88C399.753 17.7467 399.497 16.1253 398.985 15.016C398.473 13.9067 397.833 13.352 397.065 13.352ZM438.665 13.352C436.958 13.352 434.867 16.3387 432.393 22.312C430.003 28.2853 427.614 36.0933 425.225 45.736C422.921 55.3787 421.001 65.3627 419.465 75.688C424.329 71.848 428.425 66.728 431.753 60.328C435.166 53.928 437.683 47.2293 439.305 40.232C441.011 33.2347 441.865 26.8773 441.865 21.16C441.865 15.9547 440.798 13.352 438.665 13.352Z" fill="#FBF9FF"/>
</svg>
